<svg width="20" height="20" viewBox="0 0 20 20" fill="none" xmlns="http://www.w3.org/2000/svg">
<path d="M18.4996 2H1.5005C0.673107 2 0 2.67499 0 3.50469V14.5518C0 15.3814 0.673107 16.0564 1.5005 16.0564H5.2325L4.50537 16.6172C4.24433 16.8186 4.14008 17.1643 4.24609 17.477C4.35214 17.7897 4.64495 18 4.97436 18H15.0257C15.3551 18 15.6479 17.7897 15.754 17.477C15.86 17.1643 15.7558 16.8186 15.4947 16.6172L14.7676 16.0563H18.4995C19.3269 16.0563 20 15.3813 20 14.5517V3.50469C20.0001 2.67499 19.327 2 18.4996 2ZM17.9487 13.9994H2.05131V4.05702H17.9488V13.9994H17.9487V13.9994Z" fill="#FA9401"/>
</svg>
