<svg width="20" height="20" viewBox="0 0 20 20" fill="none" xmlns="http://www.w3.org/2000/svg">
<path d="M10.2649 0.00416853C6.00132 -0.132709 2.5 3.11898 2.5 7.14966C2.5 11.724 7.10812 15.0438 9.69096 19.818C9.8221 20.0604 10.1884 20.0608 10.32 19.8184C12.6565 15.5225 16.65 12.6419 17.3901 8.50332C18.1564 4.22071 14.8226 0.150548 10.2649 0.00416853ZM10.0051 10.8947C7.83398 10.8947 6.07388 9.21789 6.07388 7.14966C6.07388 5.08142 7.83402 3.40466 10.0051 3.40466C12.1762 3.40466 13.9364 5.08142 13.9364 7.14966C13.9364 9.21789 12.1762 10.8947 10.0051 10.8947Z" fill="#FA9401"/>
</svg>
