<svg width="20" height="20" viewBox="0 0 20 20" fill="none" xmlns="http://www.w3.org/2000/svg">
<path d="M1.9196 6.93184C2.1726 7.11361 2.93522 7.65349 4.20752 8.55118C5.47985 9.44888 6.45455 10.1401 7.13164 10.6248C7.20603 10.678 7.36407 10.7935 7.60585 10.9715C7.84767 11.1497 8.0486 11.2936 8.20848 11.4034C8.36848 11.5132 8.5619 11.6364 8.78894 11.7727C9.0159 11.9089 9.22985 12.0113 9.43074 12.0792C9.63167 12.1475 9.81766 12.1814 9.98876 12.1814H10.0112C10.1823 12.1814 10.3684 12.1475 10.5693 12.0792C10.7702 12.0113 10.9843 11.9088 11.2111 11.7727C11.4379 11.6362 11.6314 11.5132 11.7914 11.4034C11.9514 11.2936 12.1521 11.1497 12.394 10.9715C12.6358 10.7933 12.794 10.678 12.8684 10.6248C13.5528 10.1401 15.294 8.90897 18.0915 6.9316C18.6347 6.5454 19.0884 6.07939 19.453 5.53391C19.8178 4.98866 20 4.41666 20 3.81824C20 3.31817 19.8232 2.89009 19.4697 2.53406C19.1163 2.17796 18.6977 2 18.2142 2H1.78564C1.21276 2 0.77189 2.19694 0.463111 2.59082C0.15437 2.98478 0 3.47721 0 4.06808C0 4.54534 0.20468 5.06253 0.613846 5.61932C1.02297 6.17615 1.45837 6.6137 1.9196 6.93184Z" fill="#FA9401"/>
<path d="M18.8838 8.14763C16.4435 9.82931 14.5906 11.1362 13.3259 12.0682C12.9018 12.3862 12.5578 12.6345 12.2936 12.8124C12.0293 12.9905 11.678 13.1723 11.2389 13.3578C10.8 13.5436 10.3909 13.6362 10.0114 13.6362H9.9888C9.60934 13.6362 9.20006 13.5436 8.76115 13.3578C8.32223 13.1723 7.97061 12.9905 7.70647 12.8124C7.44241 12.6345 7.09826 12.3862 6.6742 12.0682C5.66968 11.3182 3.82075 10.0112 1.12734 8.14763C0.703129 7.85994 0.327387 7.53018 0 7.15903V16.1816C0 16.6819 0.174776 17.1097 0.524523 17.4658C0.874192 17.822 1.29465 18 1.78575 18H18.2144C18.7053 18 19.1258 17.822 19.4755 17.4658C19.8253 17.1096 20 16.6819 20 16.1816V7.15903C19.68 7.5225 19.3081 7.85226 18.8838 8.14763Z" fill="#FA9401"/>
</svg>
