<svg width="32" height="28" viewBox="0 0 32 28" fill="none" xmlns="http://www.w3.org/2000/svg">
<path d="M6.58259 21.201C5.26716 21.201 4.2009 22.2753 4.2009 23.6004C4.2009 24.9257 5.26716 26 6.58259 26C7.89785 26 8.96411 24.9257 8.96411 23.6004C8.96275 22.2758 7.89734 21.2024 6.58259 21.201Z" fill="white"/>
<path d="M19.9134 11.3074C19.8301 11.1972 19.7006 11.132 19.5631 11.131H4.10462L3.78944 9.35339C3.59517 8.25912 2.74387 7.40332 1.65742 7.20983L0.514716 7.00686C0.276495 6.9643 0.0492189 7.12419 0.00680773 7.36421C-0.0354324 7.60405 0.123267 7.8332 0.361488 7.87576L1.50847 8.07873C2.2322 8.20795 2.79876 8.77878 2.92702 9.50777L4.47674 18.3164C4.65972 19.3703 5.56866 20.1389 6.63065 20.1379H15.8243C16.7902 20.141 17.6432 19.504 17.9214 18.572L19.979 11.7001C20.0223 11.5662 19.9977 11.4196 19.9134 11.3074Z" fill="white"/>
<path d="M15.7762 21.201C14.4608 21.201 13.3945 22.2753 13.3945 23.6004C13.3945 24.9257 14.4608 26 15.7762 26C17.0915 26 18.1578 24.9257 18.1578 23.6004C18.1564 22.2758 17.091 21.2024 15.7762 21.201Z" fill="white"/>
<rect x="16" y="0.5" width="16" height="16" rx="8" fill="#FA9401"/>
<path d="M25.0449 4.54248V11.6665H23.6387V6.16357L21.9492 6.70068V5.59229L24.8936 4.54248H25.0449Z" fill="white"/>
</svg>
