<svg width="10" height="6" viewBox="0 0 10 6" fill="none" xmlns="http://www.w3.org/2000/svg">
<path d="M9.84016 0.917894L9.5126 0.638679C9.40951 0.55148 9.27235 0.503441 9.12577 0.503441C8.97926 0.503441 8.84194 0.55148 8.73885 0.638679L5.00224 3.80193L1.26131 0.635169C1.15838 0.54797 1.02107 0.5 0.87456 0.5C0.728055 0.5 0.590655 0.54797 0.487646 0.635169L0.160001 0.912663C-0.0533338 1.09312 -0.0533338 1.38706 0.160001 1.56752L4.61402 5.35148C4.71695 5.43861 4.8541 5.5 5.00191 5.5H5.00362C5.1502 5.5 5.28736 5.43854 5.39029 5.35148L9.84016 1.57777C9.94325 1.49064 9.99984 1.37103 10 1.24701C10 1.12292 9.94325 1.00496 9.84016 0.917894Z" fill="#444242"/>
</svg>
